<svg xmlns="http://www.w3.org/2000/svg" version="1.1" xmlns:xlink="http://www.w3.org/1999/xlink" xmlns:svgjs="http://svgjs.dev/svgjs" width="2000" height="1247" viewBox="0 0 2000 1247"><g transform="matrix(1,0,0,1,-1.2121212121212466,0.504858299595071)"><svg viewBox="0 0 396 247" data-background-color="#ffffff" preserveAspectRatio="xMidYMid meet" height="1247" width="2000" xmlns="http://www.w3.org/2000/svg" xmlns:xlink="http://www.w3.org/1999/xlink"><g id="tight-bounds" transform="matrix(1,0,0,1,0.2400000000000091,-0.09999999999999432)"><svg viewBox="0 0 395.52 247.2" height="247.2" width="395.52"><g><svg></svg></g><g><svg viewBox="0 0 395.52 247.2" height="247.2" width="395.52"><g transform="matrix(1,0,0,1,93.09270903010032,37.08)"><svg viewBox="0 0 209.33458193979934 173.04" height="173.04" width="209.33458193979934"><g><svg viewBox="0 0 209.33458193979934 173.04" height="173.04" width="209.33458193979934"><g><svg viewBox="0 0 209.33458193979934 173.04" height="173.04" width="209.33458193979934"><g><svg viewBox="0 0 209.33458193979934 173.04" height="173.04" width="209.33458193979934"><g id="textblocktransform"><svg viewBox="0 0 209.33458193979934 173.04" height="173.04" width="209.33458193979934" id="textblock"><g><svg viewBox="0 0 209.33458193979934 173.04" height="173.04" width="209.33458193979934"><g transform="matrix(1,0,0,1,0,0)"><svg width="209.33458193979934" viewBox="-1.9300000667572021 -38.15999984741211 61.81999969482422 51.099998474121094" height="173.04" data-palette-color="#ffffff"><path d="M1.07 12.94L-1.93 6.32Q-0.24 5.3 0.96 4.17 2.17 3.05 2.95 1.7 3.74 0.34 4.1-1.33 4.47-3 4.47-5.13L4.47-5.13 4.47-38.16 12.21-38.16 12.21-6.52Q12.21-3.98 11.99-1.89 11.77 0.2 11.27 1.94 10.77 3.69 9.92 5.15 9.08 6.62 7.85 7.93 6.62 9.25 4.94 10.47 3.27 11.69 1.07 12.94L1.07 12.94ZM22.09 0L22.09-38.16 29.83-38.16 29.83-18.41 49.97-38.16 59.89-38.16 41.09-19.95 59.89 0 49.58 0 35.52-14.55 29.83-9.06 29.83 0 22.09 0Z" opacity="1" transform="matrix(1,0,0,1,0,0)" fill="#ffffff" class="undefined-text-0" data-fill-palette-color="primary" id="text-0"></path></svg></g></svg></g></svg></g></svg></g></svg></g></svg></g></svg></g><g><path xmlns="http://www.w3.org/2000/svg" d="M0 247.2v-247.2h395.52v247.2zM379.915 231.595v-215.99h-364.31v215.99z" fill="#ffffff" fill-rule="nonzero" stroke="none" stroke-width="1" stroke-linecap="butt" stroke-linejoin="miter" stroke-miterlimit="10" stroke-dasharray="" stroke-dashoffset="0" font-family="none" font-weight="none" font-size="none" text-anchor="none" style="mix-blend-mode: normal" data-fill-palette-color="tertiary"></path></g></svg></g><defs></defs></svg><rect width="395.52" height="247.2" fill="none" stroke="none" visibility="hidden"></rect></g></svg></g></svg>